<svg version="1.1" viewBox="0.0 0.0 539.2047244094488 100.0" fill="none" stroke="none" stroke-linecap="square" stroke-miterlimit="10" xmlns:xlink="http://www.w3.org/1999/xlink" xmlns="http://www.w3.org/2000/svg"><clipPath id="p.0"><path d="m0 0l539.2047 0l0 100.0l-539.2047 0l0 -100.0z" clip-rule="nonzero"/></clipPath><g clip-path="url(#p.0)"><path fill="#000000" fill-opacity="0.0" d="m0 0l539.2047 0l0 100.0l-539.2047 0z" fill-rule="evenodd"/><path fill="#000000" fill-opacity="0.0" d="m0 0l675.43304 0l0 98.01575l-675.43304 0z" fill-rule="evenodd"/><path fill="#000000" d="m13.59375 73.0q-1.859375 0 -2.859375 -1.59375q-1.0 -1.609375 -0.203125 -3.40625l18.734375 -44.71875q1.0 -2.34375 3.265625 -2.34375q2.390625 0 3.265625 2.34375l18.796875 44.859375q0.734375 1.859375 -0.234375 3.359375q-0.96875 1.5 -2.90625 1.5q-1.0 0 -1.90625 -0.5625q-0.890625 -0.578125 -1.28125 -1.578125l-16.53125 -41.046875l1.859375 0l-16.796875 41.046875q-0.46875 1.078125 -1.375 1.609375q-0.890625 0.53125 -1.828125 0.53125zm3.53125 -11.46875l2.671875 -5.734375l26.125 0l2.671875 5.734375l-31.46875 0zm48.85942 11.46875q-1.453125 0 -2.453125 -1.0q-1.0 -1.0 -1.0 -2.46875l0 -45.125q0 -1.53125 1.0 -2.5q1.0 -0.96875 2.453125 -0.96875l13.34375 0q5.0 0 8.859375 2.203125q3.859375 2.203125 6.03125 6.109375q2.171875 3.890625 2.171875 8.953125q0 4.875 -2.171875 8.671875q-2.171875 3.796875 -6.03125 5.9375q-3.859375 2.125 -8.859375 2.125l-9.875 0l0 14.59375q0 1.46875 -0.96875 2.46875q-0.953125 1.0 -2.5 1.0zm3.46875 -24.46875l9.875 0q3.0625 0 5.390625 -1.328125q2.328125 -1.328125 3.65625 -3.65625q1.34375 -2.34375 1.34375 -5.34375q0 -3.203125 -1.34375 -5.625q-1.328125 -2.4375 -3.65625 -3.828125q-2.328125 -1.40625 -5.390625 -1.40625l-9.875 0l0 21.1875zm58.667526 25.140625q-5.875 0 -10.75 -1.96875q-4.859375 -1.96875 -8.359375 -5.53125q-3.5 -3.5625 -5.4375 -8.46875q-1.921875 -4.90625 -1.921875 -10.765625q0 -5.859375 1.921875 -10.71875q1.9375 -4.875 5.4375 -8.4375q3.5 -3.578125 8.359375 -5.53125q4.875 -1.96875 10.75 -1.96875q5.859375 0 10.6875 1.96875q4.84375 1.953125 8.375 5.53125q3.53125 3.5625 5.453125 8.4375q1.9375 4.859375 1.9375 10.71875q0 5.859375 -1.9375 10.765625q-1.921875 4.90625 -5.453125 8.46875q-3.53125 3.5625 -8.375 5.53125q-4.828125 1.96875 -10.6875 1.96875zm0 -6.265625q4.328125 0 7.953125 -1.5625q3.640625 -1.578125 6.296875 -4.34375q2.671875 -2.765625 4.109375 -6.5q1.4375 -3.734375 1.4375 -8.0625q0 -4.328125 -1.4375 -8.0625q-1.4375 -3.734375 -4.109375 -6.5q-2.65625 -2.765625 -6.296875 -4.296875q-3.625 -1.53125 -7.953125 -1.53125q-4.34375 0 -7.984375 1.53125q-3.625 1.53125 -6.265625 4.296875q-2.625 2.765625 -4.09375 6.5q-1.453125 3.734375 -1.453125 8.0625q0 4.328125 1.453125 8.0625q1.46875 3.734375 4.09375 6.5q2.640625 2.765625 6.265625 4.34375q3.640625 1.5625 7.984375 1.5625zm40.718628 5.59375q-1.46875 0 -2.4375 -1.0q-0.953125 -1.0 -0.953125 -2.46875l0 -45.125q0 -1.46875 1.0 -2.46875q1.0 -1.0 2.390625 -1.0q1.46875 0 2.46875 1.0q1.0 1.0 1.0 2.46875l0 41.65625l24.125 0q1.46875 0 2.46875 1.0q1.0 1.0 1.0 2.46875q0 1.46875 -1.0 2.46875q-1.0 1.0 -2.46875 1.0l-27.59375 0zm42.79338 0q-1.46875 0 -2.4375 -1.0q-0.953125 -1.0 -0.953125 -2.46875l0 -45.125q0 -1.46875 1.0 -2.46875q1.0 -1.0 2.390625 -1.0q1.46875 0 2.46875 1.0q1.0 1.0 1.0 2.46875l0 41.65625l24.125 0q1.46875 0 2.46875 1.0q1.0 1.0 1.0 2.46875q0 1.46875 -1.0 2.46875q-1.0 1.0 -2.46875 1.0l-27.59375 0zm58.79857 0.671875q-5.875 0 -10.75 -1.96875q-4.8593597 -1.96875 -8.35936 -5.53125q-3.5 -3.5625 -5.4375 -8.46875q-1.921875 -4.90625 -1.921875 -10.765625q0 -5.859375 1.921875 -10.71875q1.9375 -4.875 5.4375 -8.4375q3.5 -3.578125 8.35936 -5.53125q4.875 -1.96875 10.75 -1.96875q5.859375 0 10.6875 1.96875q4.84375 1.953125 8.375 5.53125q3.53125 3.5625 5.453125 8.4375q1.9375 4.859375 1.9375 10.71875q0 5.859375 -1.9375 10.765625q-1.921875 4.90625 -5.453125 8.46875q-3.53125 3.5625 -8.375 5.53125q-4.828125 1.96875 -10.6875 1.96875zm0 -6.265625q4.328125 0 7.953125 -1.5625q3.640625 -1.578125 6.296875 -4.34375q2.671875 -2.765625 4.109375 -6.5q1.4375 -3.734375 1.4375 -8.0625q0 -4.328125 -1.4375 -8.0625q-1.4375 -3.734375 -4.109375 -6.5q-2.65625 -2.765625 -6.296875 -4.296875q-3.625 -1.53125 -7.953125 -1.53125q-4.34375 0 -7.984375 1.53125q-3.625 1.53125 -6.265625 4.296875q-2.6249847 2.765625 -4.0937347 6.5q-1.453125 3.734375 -1.453125 8.0625q0 4.328125 1.453125 8.0625q1.46875 3.734375 4.0937347 6.5q2.640625 2.765625 6.265625 4.34375q3.640625 1.5625 7.984375 1.5625zm36.453003 -9.265625q-1.46875 0 -2.4375 -0.9375q-0.953125 -0.9375 -0.953125 -2.40625q0 -1.53125 0.953125 -2.453125q0.96875 -0.9375 2.4375 -0.9375l14.859375 0q1.46875 0 2.40625 0.9375q0.9375 0.921875 0.9375 2.453125q0 1.46875 -0.9375 2.40625q-0.9375 0.9375 -2.40625 0.9375l-14.859375 0zm30.390747 14.859375q-1.453125 0 -2.453125 -1.0q-1.0 -1.0 -1.0 -2.46875l0 -45.125q0 -1.53125 1.0 -2.5q1.0 -0.96875 2.453125 -0.96875l15.9375 0q4.53125 0 7.953125 1.765625q3.4375 1.765625 5.40625 4.90625q1.96875 3.125 1.96875 7.203125q0 3.265625 -1.765625 5.90625q-1.765625 2.625 -4.828125 4.15625q4.390625 1.0625 7.0625 4.203125q2.671875 3.125 2.671875 8.1875q0 4.609375 -2.171875 8.140625q-2.171875 3.53125 -6.03125 5.5625q-3.859375 2.03125 -8.859375 2.03125l-17.34375 0zm3.46875 -6.40625l13.875 0q3.0625 0 5.390625 -1.0625q2.328125 -1.0625 3.65625 -3.125q1.34375 -2.078125 1.34375 -5.140625q0 -2.859375 -1.34375 -4.71875q-1.328125 -1.875 -3.65625 -2.84375q-2.328125 -0.96875 -5.390625 -0.96875l-13.875 0l0 17.859375zm0 -24.25l12.46875 0q3.796875 0 6.234375 -1.859375q2.4375 -1.875 2.4375 -5.671875q0 -3.8125 -2.4375 -5.640625q-2.4375 -1.828125 -6.234375 -1.828125l-12.46875 0l0 15.0zm37.192535 30.65625q-1.859375 0 -2.859375 -1.59375q-1.0 -1.609375 -0.203125 -3.40625l18.734375 -44.71875q1.0 -2.34375 3.265625 -2.34375q2.390625 0 3.265625 2.34375l18.796875 44.859375q0.734375 1.859375 -0.234375 3.359375q-0.96875 1.5 -2.90625 1.5q-1.0 0 -1.90625 -0.5625q-0.890625 -0.578125 -1.28125 -1.578125l-16.53125 -41.046875l1.859375 0l-16.796875 41.046875q-0.46875 1.078125 -1.375 1.609375q-0.890625 0.53125 -1.828125 0.53125zm3.53125 -11.46875l2.671875 -5.734375l26.125 0l2.671875 5.734375l-31.46875 0zm61.93753 12.140625q-4.265625 0 -8.140625 -1.328125q-3.859375 -1.34375 -6.734375 -3.734375q-2.859375 -2.40625 -4.203125 -5.546875q-0.65625 -1.390625 0.03125 -2.59375q0.703125 -1.203125 2.375 -1.53125q1.203125 -0.265625 2.359375 0.375q1.171875 0.625 1.78125 1.890625q0.796875 1.671875 2.625 3.078125q1.828125 1.390625 4.421875 2.265625q2.609375 0.859375 5.484375 0.859375q3.1875 0 5.890625 -1.0q2.703125 -1.0 4.359375 -2.890625q1.671875 -1.90625 1.671875 -4.71875q0 -3.53125 -2.765625 -6.328125q-2.765625 -2.796875 -9.09375 -3.46875q-8.265625 -0.796875 -13.0 -4.859375q-4.734375 -4.0625 -4.734375 -10.0625q0 -4.40625 2.46875 -7.46875q2.46875 -3.0625 6.703125 -4.65625q4.234375 -1.609375 9.421875 -1.609375q4.078125 0 7.109375 1.140625q3.03125 1.125 5.296875 3.125q2.265625 2.0 3.921875 4.734375q0.9375 1.46875 0.765625 2.765625q-0.15625 1.296875 -1.296875 2.03125q-1.265625 0.796875 -2.734375 0.328125q-1.453125 -0.46875 -2.1875 -1.734375q-1.078125 -1.921875 -2.609375 -3.25q-1.53125 -1.34375 -3.59375 -2.109375q-2.0625 -0.765625 -4.875 -0.765625q-4.921875 -0.0625 -8.265625 1.84375q-3.328125 1.890625 -3.328125 5.8125q0 2.0 1.03125 3.84375q1.03125 1.828125 3.796875 3.171875q2.78125 1.328125 7.96875 1.859375q7.9375 0.796875 12.359375 4.828125q4.4375 4.03125 4.4375 10.640625q0 3.796875 -1.5625 6.59375q-1.5625 2.796875 -4.203125 4.703125q-2.625 1.890625 -6.0 2.828125q-3.359375 0.9375 -6.953125 0.9375zm32.781433 -0.671875q-1.453125 0 -2.453125 -1.0q-1.0 -1.0 -1.0 -2.46875l0 -45.125q0 -1.53125 1.0 -2.5q1.0 -0.96875 2.453125 -0.96875q1.546875 0 2.5 0.96875q0.96875 0.96875 0.96875 2.5l0 45.125q0 1.46875 -0.96875 2.46875q-0.953125 1.0 -2.5 1.0zm40.13855 0.671875q-5.40625 0 -10.109375 -2.03125q-4.6875 -2.046875 -8.1875 -5.671875q-3.5 -3.640625 -5.46875 -8.5q-1.96875 -4.859375 -1.96875 -10.53125q0 -5.59375 1.96875 -10.421875q1.96875 -4.84375 5.46875 -8.46875q3.5 -3.640625 8.15625 -5.703125q4.671875 -2.0625 10.140625 -2.0625q5.125 0 8.828125 1.328125q3.703125 1.328125 7.4375 4.390625q0.53125 0.40625 0.828125 0.84375q0.296875 0.4375 0.390625 0.875q0.109375 0.421875 0.109375 1.015625q0 1.265625 -0.90625 2.109375q-0.890625 0.828125 -2.15625 0.9375q-1.265625 0.09375 -2.46875 -0.84375q-2.46875 -2.125 -5.109375 -3.25q-2.625 -1.140625 -6.953125 -1.140625q-3.9375 0 -7.40625 1.59375q-3.46875 1.59375 -6.109375 4.40625q-2.625 2.796875 -4.09375 6.5q-1.453125 3.6875 -1.453125 7.890625q0 4.265625 1.453125 7.96875q1.46875 3.703125 4.09375 6.5q2.640625 2.796875 6.109375 4.359375q3.46875 1.5625 7.40625 1.5625q3.390625 0 6.421875 -1.15625q3.03125 -1.171875 5.84375 -3.234375q1.1875 -0.875 2.359375 -0.765625q1.171875 0.09375 1.96875 0.9375q0.796875 0.828125 0.796875 2.296875q0 0.65625 -0.265625 1.296875q-0.265625 0.625 -0.796875 1.171875q-3.59375 2.859375 -7.703125 4.328125q-4.09375 1.46875 -8.625 1.46875z" fill-rule="nonzero"/></g></svg>